<?xml version="1.0" encoding="utf-8"?>
<!-- Generator: Adobe Illustrator 19.1.0, SVG Export Plug-In . SVG Version: 6.00 Build 0)  -->
<svg version="1.1" id="Layer_1" xmlns="http://www.w3.org/2000/svg" xmlns:xlink="http://www.w3.org/1999/xlink" x="0px" y="0px"
	 viewBox="0 0 124.9 137.4" style="enable-background:new 0 0 124.9 137.4;" xml:space="preserve">
<style type="text/css">
	.st0{fill:#4E8F8C;}
</style>
<g>
	<g>
		<path class="st0" d="M48.5,49.4c34.9-16.7,45.9,11.1,54.3,28.3c9.6,19.4,9.9,23,19.9,22.6v1c-8.9,0.6-16.3,1.4-22.7,1.4
			c-13.6,0-22.6-3.9-29.7-22.7c-3.4-8.9-11-34.7-23.7-28.3v23.9c0,17,0.1,24.7,12.7,24.7v1H1.6v-1c15.4,0,15.4-8,15.4-24.7V27
			c0-17.3,0-24.7-15.4-24.7v-1h57.6v1C46.6,2.2,46.5,10,46.5,27v22.6l12.6-14.1C70.9,22.1,88.2,2.2,70.8,2.2v-1h41.9v1
			c-18.3,0-38.9,18.9-52.6,34.2L48.5,49.4z"/>
	</g>
	<g>
		<path class="st0" d="M1.5,119.8h2.4c1.2,0,2.8,0.1,4.3,1.4c1.1,0.9,2,2.4,2,4.4c0,2.4-1.2,3.7-2,4.4c-1.1,0.9-2.2,1.3-4.2,1.3H1.5
			V119.8z M2.8,130.1h1.1c0.9,0,2.2-0.1,3.3-1c0.9-0.7,1.6-1.9,1.6-3.5c0-2.8-1.9-4.6-4.9-4.6H2.8V130.1z"/>
		<path class="st0" d="M18.3,129.5c-0.2,0.4-0.5,0.8-0.9,1.2c-0.7,0.6-1.5,0.9-2.4,0.9c-1.7,0-3.6-1.1-3.6-3.8
			c0-2.1,1.3-3.8,3.5-3.8c1.4,0,2.3,0.7,2.7,1.3c0.5,0.6,0.7,1.8,0.7,2.7h-5.6c0,1.5,1,2.4,2.3,2.4c0.6,0,1.1-0.2,1.5-0.5
			c0.3-0.3,0.6-0.6,0.7-1L18.3,129.5z M17.1,126.9c-0.2-1.1-1.1-1.9-2.1-1.9c-1.1,0-1.9,0.8-2.1,1.9H17.1z"/>
		<path class="st0" d="M23.1,125.8c-0.2-0.4-0.5-0.7-1-0.7c-0.5,0-0.9,0.3-0.9,0.8c0,0.5,0.3,0.7,1.2,1c1,0.4,1.5,0.8,1.8,1.1
			c0.3,0.4,0.4,0.8,0.4,1.2c0,1.5-1.1,2.4-2.5,2.4c-0.3,0-1.9,0-2.5-1.8l1.1-0.5c0.1,0.4,0.6,1.2,1.5,1.2c0.8,0,1.2-0.6,1.2-1.1
			c0-0.7-0.5-0.9-1.2-1.2c-0.9-0.4-1.4-0.7-1.8-1.1c-0.3-0.3-0.3-0.7-0.3-1.1c0-1.3,0.9-2,2.1-2c0.4,0,1.4,0.1,2,1.3L23.1,125.8z"/>
		<path class="st0" d="M26.7,120.5c0.5,0,0.9,0.4,0.9,0.9s-0.4,0.9-0.9,0.9s-0.9-0.4-0.9-0.9S26.2,120.5,26.7,120.5z M27.3,124.1
			v7.2H26v-7.2H27.3z"/>
		<path class="st0" d="M34.9,124.1h1.2v7c0,0.8,0,1.9-0.7,2.8c-0.5,0.7-1.5,1.3-2.9,1.3c-1.2,0-2.1-0.5-2.6-1
			c-0.5-0.5-0.9-1.3-0.9-2.3h1.2c0,0.6,0.2,1.1,0.6,1.5c0.5,0.6,1.2,0.7,1.7,0.7c0.9,0,1.5-0.3,1.9-1c0.4-0.6,0.4-1.2,0.4-1.8v-1
			c-0.4,0.5-1.2,1.2-2.5,1.2c-1.1,0-1.9-0.4-2.5-1c-0.5-0.5-1-1.4-1-2.8c0-1.4,0.5-2.3,1-2.8c0.6-0.6,1.5-1,2.5-1
			c1.1,0,1.9,0.5,2.5,1.2V124.1z M31,125.7c-0.6,0.6-0.7,1.4-0.7,2c0,0.6,0.1,1.5,0.8,2.1c0.4,0.4,0.9,0.6,1.5,0.6
			c0.7,0,1.2-0.2,1.6-0.6c0.5-0.5,0.8-1.2,0.8-2.1c0-0.8-0.3-1.6-0.8-2c-0.4-0.4-1-0.6-1.6-0.6C31.8,125.1,31.3,125.4,31,125.7z"/>
		<path class="st0" d="M38.3,124.1h1.2v0.8c0.2-0.3,0.9-1,2.1-1c0.8,0,1.6,0.3,2.1,1c0.4,0.5,0.4,1.1,0.4,1.9v4.5h-1.2v-4.4
			c0-0.4,0-0.9-0.3-1.3c-0.2-0.3-0.6-0.5-1.2-0.5c-0.4,0-0.9,0.1-1.3,0.6c-0.5,0.6-0.5,1.4-0.5,1.9v3.8h-1.2V124.1z"/>
		<path class="st0" d="M69.7,119.8h2.4c1.2,0,2.8,0.1,4.3,1.4c1.1,0.9,2,2.4,2,4.4c0,2.4-1.2,3.7-2,4.4c-1.1,0.9-2.2,1.3-4.2,1.3
			h-2.3V119.8z M71,130.1h1.1c0.9,0,2.2-0.1,3.3-1c0.9-0.7,1.6-1.9,1.6-3.5c0-2.8-1.9-4.6-4.9-4.6H71V130.1z"/>
		<path class="st0" d="M86.6,129.5c-0.2,0.4-0.5,0.8-0.9,1.2c-0.7,0.6-1.5,0.9-2.4,0.9c-1.7,0-3.6-1.1-3.6-3.8
			c0-2.1,1.3-3.8,3.5-3.8c1.4,0,2.3,0.7,2.7,1.3c0.5,0.6,0.7,1.8,0.7,2.7H81c0,1.5,1,2.4,2.3,2.4c0.6,0,1.1-0.2,1.5-0.5
			c0.3-0.3,0.6-0.6,0.7-1L86.6,129.5z M85.3,126.9c-0.2-1.1-1.1-1.9-2.1-1.9s-1.9,0.8-2.1,1.9H85.3z"/>
		<path class="st0" d="M88.5,124.1l2.1,4.9l2.1-4.9h1.4l-3.5,7.7l-3.5-7.7H88.5z"/>
		<path class="st0" d="M101.4,129.5c-0.2,0.4-0.5,0.8-0.9,1.2c-0.7,0.6-1.5,0.9-2.4,0.9c-1.7,0-3.6-1.1-3.6-3.8
			c0-2.1,1.3-3.8,3.5-3.8c1.4,0,2.3,0.7,2.7,1.3c0.5,0.6,0.7,1.8,0.7,2.7h-5.6c0,1.5,1,2.4,2.3,2.4c0.6,0,1.1-0.2,1.5-0.5
			c0.3-0.3,0.6-0.6,0.7-1L101.4,129.5z M100.2,126.9c-0.2-1.1-1.1-1.9-2.1-1.9c-1.1,0-1.9,0.8-2.1,1.9H100.2z"/>
		<path class="st0" d="M104.4,118.7v12.6h-1.2v-12.6H104.4z"/>
		<path class="st0" d="M106.1,127.8c0-2.2,1.6-3.8,3.8-3.8c2.2,0,3.8,1.6,3.8,3.8c0,2.2-1.6,3.8-3.8,3.8
			C107.7,131.5,106.1,129.9,106.1,127.8z M107.4,127.8c0,1.8,1.2,2.7,2.5,2.7c1.3,0,2.5-0.9,2.5-2.7c0-1.8-1.2-2.7-2.5-2.7
			C108.6,125.1,107.4,126,107.4,127.8z"/>
		<path class="st0" d="M116.7,135.3h-1.2v-11.2h1.2v1c0.8-1.1,1.9-1.2,2.5-1.2c2.3,0,3.5,1.9,3.5,3.8c0,2-1.3,3.8-3.4,3.8
			c-1.2,0-2-0.5-2.5-1.2V135.3z M121.4,127.8c0-1.8-1.2-2.7-2.4-2.7c-1.2,0-2.4,1-2.4,2.7c0,1.5,0.9,2.7,2.4,2.7
			C120.5,130.4,121.4,129.2,121.4,127.8z"/>
	</g>
	
		<rect x="56.4" y="118.7" transform="matrix(0.7438 0.6684 -0.6684 0.7438 99.0735 -5.562)" class="st0" width="0.8" height="15.5"/>
</g>
</svg>
